<?xml version="1.0" encoding="UTF-8" standalone="no"?>
<svg xmlns="http://www.w3.org/2000/svg" version="1.1"
     viewBox="0 0 760 260" width="760" height="260"
     shape-rendering="geometricPrecision" text-rendering="geometricPrecision">
  <title>ОПОРА — Логотип (полноцветная версия)</title>
  <desc>Полная версия логотипа: знак + название + дескриптор</desc>

  <g id="opora-shield" transform="translate(-1.821, -27.949) scale(0.6013)">
    <path d="M0 0 C30.13320017 11.58457833 61.32227487 22.02933822 92.8125 29.1875 C93.69389648 29.38972168 94.57529297 29.59194336 95.48339844 29.80029297 C106.07414399 32.21469912 116.5251505 34.5807732 127.36328125 35.53515625 C129.8125 36.1875 129.8125 36.1875 130.91235352 37.78930664 C133.10238529 43.62404548 132.96400642 50.37405258 133.4375 56.5625 C133.50253723 57.39851746 133.56757446 58.23453491 133.63458252 59.09588623 C136.20072663 93.2021872 136.8308484 128.28975137 131.8125 162.1875 C131.59147686 163.88772688 131.37260957 165.58823588 131.15625 167.2890625 C128.41997889 187.65746604 122.80481432 207.28311378 114.8125 226.1875 C114.6487085 226.58026123 114.6487085 226.58026123 113.81982422 228.56787109 C109.70326196 238.30855579 105.12023877 246.39950132 97.8125 254.1875 C97.20019531 254.8784375 96.58789062 255.569375 95.95703125 256.28125 C83.42932129 269.74386368 66.43944883 278.6201005 48.8125 283.1875 C48.008125 283.41308594 47.20375 283.63867188 46.375 283.87109375 C28.53321626 288.24112524 8.67333386 285.16062759 -7.1875 276.1875 C-13.49214554 272.11118962 -18.22853711 267.51639251 -22.1875 261.1875 C-21.86587891 261.17291748 -21.86587891 261.17291748 -20.23828125 261.09912109 C-1.22082331 260.13943126 15.14691311 258.23626311 28.953125 243.9765625 C39.96674683 231.37208419 42.15311909 216.04799337 41.83984375 199.91015625 C41.82604203 197.34962265 41.81506064 194.78907258 41.80664062 192.22851562 C41.78625791 188.23374865 41.75506628 184.24205195 41.6652832 180.24829102 C41.18251311 155.51431904 41.18251311 155.51431904 46.82167053 149.27330017 C49.00499094 147.3073384 51.27805947 145.6687751 53.8125 144.1875 C56.79066718 145.61182416 58.79181682 146.96653265 61.0625 149.375 C63.49283794 151.88273724 65.96755658 154.23446237 68.625 156.5 C72.88435786 160.1592135 76.79092416 164.13133405 80.7109375 168.1484375 C82.8125 170.1875 82.8125 170.1875 84.8125 171.1875 C84.90225098 170.63739258 84.99200195 170.08728516 85.08447266 169.52050781 C87.22398478 156.53422874 89.71930442 143.66508257 92.52978516 130.80761719 C94.23971427 122.95373588 95.82539078 115.08645124 97.3125 107.1875 C99.23496967 96.99042306 101.36358895 86.84931051 103.56884766 76.70996094 C106.19239756 64.57582956 108.52734896 52.38928634 110.8125 40.1875 C94.50206521 43.82173655 78.27496622 47.76682874 62.0625 51.8125 C61.11596558 52.04788483 60.16943115 52.28326965 59.19421387 52.52578735 C49.38017871 54.96867627 39.61164735 57.48431645 29.90087891 60.31201172 C25.09322293 61.67487767 20.2465555 62.82858472 15.375 63.9375 C14.44751953 64.15792969 13.52003906 64.37835938 12.56445312 64.60546875 C5.6793211 66.18117061 -0.22605883 66.66181795 -7.1875 65.1875 C-24.29904179 63.80680681 -40.35695892 67.94650981 -53.875 78.6875 C-64.10817825 88.37050738 -69.62782521 102.29770034 -70.34463501 116.24493408 C-70.40627018 119.70307901 -70.40574483 123.15473071 -70.375 126.61328125 C-70.37047569 127.21472458 -70.37047569 127.21472458 -70.34757996 130.25839233 C-70.29476009 135.27737544 -70.22320624 140.29363905 -70.07470703 145.31079102 C-69.47185056 167.66984339 -69.47185056 167.66984339 -73.6862793 173.17138672 C-76.52891256 176.08570484 -79.699 178.11382075 -83.1875 180.1875 C-84.44193839 181.19584455 -85.68201996 182.22285934 -86.89453125 183.28125 C-90.31474391 185.93137704 -93.7396325 188.5734667 -97.1875 191.1875 C-97.49123535 191.41969238 -97.49123535 191.41969238 -99.02832031 192.59472656 C-127.22868524 214.08284033 -127.22868524 214.08284033 -142.1875 217.1875 C-143.86345531 216.90454651 -145.53356491 216.57914732 -147.1875 216.1875 C-153.03443957 199.38544854 -157.33983357 182.74861723 -160.1875 165.1875 C-160.31882324 164.38473633 -160.45014648 163.58197266 -160.58544922 162.75488281 C-161.25189519 158.57300446 -161.85704088 154.40948517 -162.1875 150.1875 C-162.25163086 149.42783936 -162.31576172 148.66817871 -162.38183594 147.88549805 C-162.7062846 141.160975 -161.1291965 136.78075456 -157.8125 131 C-157.58618896 130.58987671 -157.58618896 130.58987671 -156.44091797 128.5144043 C-152.10676726 120.78364258 -147.35172773 113.38646366 -142.1875 106.1875 C-141.72085938 105.5368457 -141.25421875 104.88619141 -140.7734375 104.21582031 C-137.33871866 99.46553068 -133.80376336 94.8008992 -130.1875 90.1875 C-129.75872559 89.63868164 -129.32995117 89.08986328 -128.88818359 88.52441406 C-121.77644858 79.5508085 -113.68752207 71.48306719 -105.625 63.375 C-105.0941983 62.83884064 -104.56339661 62.30268127 -104.01651001 61.75027466 C-97.07377875 54.75449739 -89.90725098 48.33367876 -82.1875 42.1875 C-81.03916956 41.21716305 -79.89613712 40.2404718 -78.76171875 39.25390625 C-71.23184608 32.72258232 -63.38527232 26.8534266 -55.1875 21.1875 C-72.25245746 31.9370795 -88.62336866 43.34284246 -104.1875 56.1875 C-104.66767578 56.57486328 -104.66767578 56.57486328 -107.09765625 58.53515625 C-115.16319207 65.15931787 -122.60806658 72.39389297 -130 79.75 C-130.48777924 80.23260284 -130.97555847 80.71520569 -131.4781189 81.21243286 C-140.37776763 90.03755114 -148.43809381 99.36776213 -155.5625 109.6875 C-157.91542168 113.08042782 -160.20374814 116.31370393 -163.1875 119.1875 C-163.23785022 112.89682107 -163.27365648 106.60626555 -163.29736328 100.31542969 C-163.30727124 98.18617708 -163.32080137 96.05693749 -163.33837891 93.92773438 C-163.4917217 74.84106618 -162.52550106 56.00814429 -159.1875 37.1875 C-153.79449798 35.77199709 -148.39881808 34.62533768 -142.9206543 33.59130859 C-104.75592985 26.33068786 -65.68244709 14.59575146 -29.640625 -0.02734375 C-29.22659424 -0.19508301 -29.22659424 -0.19508301 -27.13134766 -1.04394531 C-25.65514153 -1.65258115 -24.1851344 -2.2766452 -22.72412109 -2.92089844 C-14.44228969 -6.3857676 -7.8209139 -3.0917726 0 0 Z " fill="#C8CDD2" transform="translate(210.1875,93.8125)"/>
    <path d="M0 0 C-0.74017323 8.56486161 -2.47512618 16.9022303 -4.1875 25.3125 C-4.50250262 26.87375053 -4.81736078 28.43503022 -5.13208008 29.99633789 C-7.31681208 40.79898321 -9.59398379 51.58017936 -11.92700195 62.35180664 C-14.06078591 72.21338797 -16.06076711 82.09850501 -18 92 C-22.23380191 90.31680558 -25.13172992 87.27757414 -28.375 84.1875 C-29.48560873 83.13787096 -30.59757997 82.08968164 -31.7109375 81.04296875 C-32.19868652 80.57914795 -32.68643555 80.11532715 -33.18896484 79.63745117 C-35.72661292 77.34303143 -38.36309882 75.17960179 -41 73 C-46.48861972 78.46532279 -51.97444092 83.93343817 -57.45682621 89.40501404 C-60.00332694 91.94632359 -62.55073765 94.48670605 -65.1003418 97.02490234 C-67.56648205 99.48007864 -70.03008301 101.93777792 -72.492033 104.39715576 C-73.87660956 105.77901905 -75.26372123 107.15834075 -76.65089417 108.53759766 C-81.14083556 113.02714488 -85.49370191 117.56846844 -89.61671448 122.39872742 C-91.27117775 124.31391168 -93.03973106 126.0710337 -94.875 127.8125 C-98.78052544 131.65805576 -102.16383665 135.81761877 -105.58984375 140.08984375 C-108.08275445 143.09992231 -110.70349733 145.96283431 -113.375 148.8125 C-119.34155099 155.22372396 -124.71805511 162.02001051 -130 169 C-130.42667969 169.55381348 -130.85335937 170.10762695 -131.29296875 170.67822266 C-145.19444299 188.78756621 -156.48427591 209.55964267 -155 233 C-152.45018877 252.01831676 -142.16257582 265.50513781 -127.92578125 277.53125 C-124.76907262 279.9388006 -121.43599753 282.01699079 -118 284 C-118.66 284.33 -119.32 284.66 -120 285 C-122.51171875 283.92700195 -122.51171875 283.92700195 -125.6875 282.23828125 C-126.26999512 281.92910767 -126.26999512 281.92910767 -129.21777344 280.36450195 C-130.47909231 279.68156531 -131.7398227 278.99754082 -133 278.3125 C-133.63425903 277.97020355 -134.26851807 277.6279071 -134.92199707 277.27523804 C-145.70939468 271.44141477 -156.04311728 265.17530794 -166 258 C-166.69512695 257.5040332 -167.39025391 257.00806641 -168.10644531 256.49707031 C-179.27933787 248.4840838 -189.27606452 239.72393548 -199 230 C-199.81597656 229.23042969 -200.63195312 228.46085938 -201.47265625 227.66796875 C-216.03535717 213.72028386 -229.8533691 195.01625267 -237 176 C-236.67 175.01 -236.34 174.02 -236 173 C-233.5859375 171.89453125 -233.5859375 171.89453125 -230.375 170.8125 C-204.77253129 161.36099147 -183.02527847 143.1723139 -163.11328125 124.93359375 C-161.14330794 123.13112279 -159.14377944 121.37241601 -157.125 119.625 C-152.19783794 115.32977857 -147.39930691 110.89531974 -142.59423828 106.46484375 C-141.03578386 105.0328795 -139.47012229 103.60924296 -137.90234375 102.1875 C-130.97665781 95.88337765 -124.29206742 89.37884846 -117.73144531 82.69458008 C-114.72127151 79.64394695 -111.69358052 76.69605033 -108.42578125 73.921875 C-101.76635729 68.18216689 -95.69170069 61.79563505 -89.5 55.5625 C-88.18773415 54.24520941 -86.87523605 52.92815014 -85.5625 51.61132812 C-82.37231494 48.4102139 -79.18529349 45.20598135 -76 42 C-77.29832171 39.1087434 -78.63026773 37.1516981 -80.96875 35.01953125 C-81.53980469 34.49552734 -82.11085937 33.97152344 -82.69921875 33.43164062 C-83.29347656 32.89732422 -83.88773438 32.36300781 -84.5 31.8125 C-85.09425781 31.26658203 -85.68851563 30.72066406 -86.30078125 30.15820312 C-90.70301769 26.14849116 -90.70301769 26.14849116 -93 25 C-93 24.34 -93 23.68 -93 23 C-85.08757352 21.01600739 -77.17479702 19.0334185 -69.26161289 17.05245018 C-65.58415903 16.13180184 -61.90681168 15.21073327 -58.22973633 14.28857422 C-53.96729546 13.21968504 -49.70448365 12.15228506 -45.44140625 11.0859375 C-45.09239069 10.99859722 -45.09239069 10.99859722 -43.32616043 10.55660248 C-32.68697397 7.89617474 -22.03373417 5.30064362 -11.35682678 2.79501343 C-10.40883713 2.57084747 -9.46084747 2.34668152 -8.48413086 2.11572266 C-7.660858 1.92289703 -6.83758514 1.73007141 -5.98936462 1.53140259 C-0.2563889 0 -0.2563889 0 0 0 Z " fill="#1A8A91" transform="translate(306,149)"/>
    <path d="M0 0 C1.19560547 0.44794922 2.39121094 0.89589844 3.62304688 1.35742188 C4.23760742 1.59170898 4.23760742 1.59170898 7.34765625 2.77734375 C8.61629128 3.2552087 9.88516965 3.73242816 11.15429688 4.20898438 C14.2420324 5.37128786 17.32714611 6.54007604 20.41015625 7.71484375 C20.41015625 8.37484375 20.41015625 9.03484375 20.41015625 9.71484375 C20.13659302 9.8348877 20.13659302 9.8348877 18.75219727 10.44238281 C1.32492648 18.17974894 -13.85765448 27.376991 -27.58984375 40.71484375 C-28.45609375 41.50761719 -29.32234375 42.30039063 -30.21484375 43.1171875 C-50.3919027 62.17648324 -65.03065611 90.14777435 -66.80450439 118.09710693 C-66.89290088 121.64349406 -66.90614451 125.17924219 -66.875 128.7265625 C-66.87006027 129.32569962 -66.87006027 129.32569962 -66.84506226 132.35769653 C-66.7826773 137.29607348 -66.6897726 142.23142056 -66.53198242 147.16772461 C-65.89564895 169.22106037 -65.89564895 169.22106037 -70.08422852 174.67236328 C-72.93015537 177.58877776 -76.10378447 179.62909839 -79.58984375 181.71484375 C-80.84390446 182.72365798 -82.08390785 183.75072555 -83.296875 184.80859375 C-86.71708766 187.45872079 -90.14197625 190.10081045 -93.58984375 192.71484375 C-93.8935791 192.94703613 -93.8935791 192.94703613 -95.43066406 194.12207031 C-123.63102899 215.61018408 -123.63102899 215.61018408 -138.58984375 218.71484375 C-140.26579906 218.43189026 -141.93590866 218.10649107 -143.58984375 217.71484375 C-149.43678332 200.91279229 -153.74217732 184.27596098 -156.58984375 166.71484375 C-156.72116699 165.91208008 -156.85249023 165.10931641 -156.98779297 164.28222656 C-157.65423894 160.10034821 -158.25938463 155.93682892 -158.58984375 151.71484375 C-158.65397461 150.95518311 -158.71810547 150.19552246 -158.78417969 149.4128418 C-159.10862835 142.68831875 -157.53154025 138.30809831 -154.21484375 132.52734375 C-153.98853271 132.11722046 -153.98853271 132.11722046 -152.84326172 130.04174805 C-148.50911101 122.31098633 -143.75407148 114.91380741 -138.58984375 107.71484375 C-138.12320313 107.06418945 -137.6565625 106.41353516 -137.17578125 105.74316406 C-133.74106241 100.99287443 -130.20610711 96.32824295 -126.58984375 91.71484375 C-126.16106934 91.16602539 -125.73229492 90.61720703 -125.29052734 90.05175781 C-118.17879233 81.07815225 -110.08986582 73.01041094 -102.02734375 64.90234375 C-101.49654205 64.36618439 -100.96574036 63.83002502 -100.41885376 63.27761841 C-93.4761225 56.28184114 -86.30959473 49.86102251 -78.58984375 43.71484375 C-77.44151331 42.7445068 -76.29848087 41.76781555 -75.1640625 40.78125 C-67.63418983 34.24992607 -59.78761607 28.38077035 -51.58984375 22.71484375 C-68.65480121 33.46442325 -85.02571241 44.87018621 -100.58984375 57.71484375 C-101.07001953 58.10220703 -101.07001953 58.10220703 -103.5 60.0625 C-111.56553582 66.68666162 -119.01041033 73.92123672 -126.40234375 81.27734375 C-126.89012299 81.75994659 -127.37790222 82.24254944 -127.88046265 82.73977661 C-136.78011138 91.56489489 -144.84043756 100.89510588 -151.96484375 111.21484375 C-154.31776543 114.60777157 -156.60609189 117.84104768 -159.58984375 120.71484375 C-159.64019397 114.42416482 -159.67600023 108.1336093 -159.69970703 101.84277344 C-159.70961499 99.71352083 -159.72314512 97.58428124 -159.74072266 95.45507812 C-159.89406545 76.36840993 -158.92784481 57.53548804 -155.58984375 38.71484375 C-150.19684173 37.29934084 -144.80116183 36.15268143 -139.32299805 35.11865234 C-101.1582736 27.85803161 -62.08479084 16.12309521 -26.04296875 1.5 C-25.62893799 1.33226074 -25.62893799 1.33226074 -23.53369141 0.48339844 C-22.05748528 -0.1252374 -20.58747815 -0.74930145 -19.12646484 -1.39355469 C-12.24274214 -4.27349722 -6.74461871 -2.54940133 0 0 Z " fill="#2EC4B6" transform="translate(206.58984375,92.28515625)"/>
    <path d="M0 0 C0.64727051 0.23283691 1.29454102 0.46567383 1.96142578 0.70556641 C6.66719642 2.40490192 11.3391309 4.18140322 16 6 C16 6.66 16 7.32 16 8 C15.72643677 8.12004395 15.72643677 8.12004395 14.34204102 8.72753906 C-3.08522977 16.46490519 -18.26781073 25.66214725 -32 39 C-32.86625 39.79277344 -33.7325 40.58554688 -34.625 41.40234375 C-54.80205895 60.46163949 -69.44081236 88.4329306 -71.21466064 116.38226318 C-71.30305713 119.92865031 -71.31630076 123.46439844 -71.28515625 127.01171875 C-71.28021652 127.61085587 -71.28021652 127.61085587 -71.25521851 130.64285278 C-71.19283355 135.58122973 -71.09992885 140.51657681 -70.94213867 145.45288086 C-70.3058052 167.50621662 -70.3058052 167.50621662 -74.49438477 172.95751953 C-77.34031162 175.87393401 -80.51394072 177.91425464 -84 180 C-85.25406071 181.00881423 -86.4940641 182.0358818 -87.70703125 183.09375 C-91.12724391 185.74387704 -94.5521325 188.3859667 -98 191 C-98.6074707 191.46438477 -99.21494141 191.92876953 -99.84082031 192.40722656 C-128.04118524 213.89534033 -128.04118524 213.89534033 -143 217 C-144.67595531 216.71704651 -146.34606491 216.39164732 -148 216 C-146.07814056 181.71180733 -133.4556543 147.40275345 -118 117 C-117.61134766 116.23494141 -117.22269531 115.46988281 -116.82226562 114.68164062 C-105.29973495 92.40198975 -90.05667231 71.34524795 -73 53 C-71.89178922 51.71180139 -70.78750644 50.42021142 -69.6875 49.125 C-62.43411599 40.80891089 -54.43306446 33.10634365 -46 26 C-45.53529297 25.59652344 -45.53529297 25.59652344 -43.18359375 23.5546875 C-37.17729162 18.36246424 -31.03061782 13.40091592 -24.6875 8.625 C-24.36491211 8.38124634 -24.36491211 8.38124634 -22.73242188 7.14770508 C-19.47175171 4.71930679 -16.15963749 2.37343092 -12.76953125 0.12890625 C-12.14280518 -0.2880249 -11.5160791 -0.70495605 -10.87036133 -1.13452148 C-7.07224931 -2.89203448 -3.73463059 -1.36709479 0 0 Z " fill="#233370" transform="translate(211,94)"/>
    <path d="M0 0 C0 1.65 0 3.3 0 5 C-0.33 4.67 -0.33 4.67 -2 3 C-2.50450684 3.51498047 -3.00901367 4.02996094 -3.52880859 4.56054688 C-5.80568564 6.87885984 -8.09020471 9.18949158 -10.375 11.5 C-11.1690625 12.31082031 -11.963125 13.12164062 -12.78125 13.95703125 C-13.54179687 14.72402344 -14.30234375 15.49101562 -15.0859375 16.28125 C-15.7876709 16.99345703 -16.4894043 17.70566406 -17.21240234 18.43945312 C-19 20 -19 20 -21 20 C-21 20.66 -21 21.32 -21 22 C-21.66 22 -22.32 22 -23 22 C-23.25523437 22.58136719 -23.51046875 23.16273438 -23.7734375 23.76171875 C-25.12502724 26.22815481 -26.61692694 27.84842854 -28.625 29.8125 C-29.25664062 30.43769531 -29.88828125 31.06289062 -30.5390625 31.70703125 C-32.50397747 33.53783297 -34.49742189 35.28769064 -36.53599548 37.03358459 C-41.53022026 41.39857592 -46.20178995 46.06169529 -50.88500977 50.75561523 C-51.84998349 51.71923071 -52.81516912 52.68263403 -53.7805481 53.64584351 C-56.37989737 56.24066891 -58.97611559 58.8386053 -61.57161069 61.43728518 C-64.30143801 64.16966236 -67.03372498 66.89957827 -69.76560974 69.62989807 C-74.35099098 74.21346524 -78.93427183 78.79912473 -83.51635742 83.38598633 C-88.79724572 88.67231577 -94.08172654 93.95503339 -99.36808735 99.23588985 C-103.92473551 103.78798512 -108.47941342 108.34204487 -113.03248066 112.89772183 C-115.74396233 115.61075432 -118.45609554 118.32312624 -121.17001534 121.03372002 C-123.72256916 123.58336339 -126.27262286 126.13548226 -128.82085037 128.68944931 C-130.19066574 130.06119549 -131.56291256 131.43051235 -132.93525696 132.79972839 C-137.32208219 137.20143827 -141.56673316 141.66320149 -145.60496426 146.38809299 C-147.26454489 148.30567085 -149.03596091 150.06745624 -150.875 151.8125 C-154.84884378 155.72497168 -158.31295384 159.95571109 -161.796875 164.3046875 C-163.70993726 166.64513601 -165.68877156 168.85404096 -167.75 171.0625 C-182.28698704 187.31142763 -192.71544433 205.96789111 -201 226 C-215.48256494 219.84409991 -225.86544992 197.1804951 -233 184 C-233.23332031 183.58041016 -233.23332031 183.58041016 -234.4140625 181.45703125 C-235.5625 179.3125 -235.5625 179.3125 -237 176 C-236.67 175.01 -236.34 174.02 -236 173 C-233.5859375 171.89453125 -233.5859375 171.89453125 -230.375 170.8125 C-204.77253129 161.36099147 -183.02527847 143.1723139 -163.11328125 124.93359375 C-161.14330794 123.13112279 -159.14377944 121.37241601 -157.125 119.625 C-152.19783794 115.32977857 -147.39930691 110.89531974 -142.59423828 106.46484375 C-141.03578386 105.0328795 -139.47012229 103.60924296 -137.90234375 102.1875 C-130.97665781 95.88337765 -124.29206742 89.37884846 -117.73144531 82.69458008 C-114.72127151 79.64394695 -111.69358052 76.69605033 -108.42578125 73.921875 C-101.76635729 68.18216689 -95.69170069 61.79563505 -89.5 55.5625 C-88.18773415 54.24520941 -86.87523605 52.92815014 -85.5625 51.61132812 C-82.37231494 48.4102139 -79.18529349 45.20598135 -76 42 C-77.29832171 39.1087434 -78.63026773 37.1516981 -80.96875 35.01953125 C-81.53980469 34.49552734 -82.11085937 33.97152344 -82.69921875 33.43164062 C-83.29347656 32.89732422 -83.88773438 32.36300781 -84.5 31.8125 C-85.09425781 31.26658203 -85.68851563 30.72066406 -86.30078125 30.15820312 C-90.70301769 26.14849116 -90.70301769 26.14849116 -93 25 C-93 24.34 -93 23.68 -93 23 C-85.08757352 21.01600739 -77.17479702 19.0334185 -69.26161289 17.05245018 C-65.58415903 16.13180184 -61.90681168 15.21073327 -58.22973633 14.28857422 C-53.96729546 13.21968504 -49.70448365 12.15228506 -45.44140625 11.0859375 C-45.09239069 10.99859722 -45.09239069 10.99859722 -43.32616043 10.55660248 C-32.68697397 7.89617474 -22.03373417 5.30064362 -11.35682678 2.79501343 C-10.40883713 2.57084747 -9.46084747 2.34668152 -8.48413086 2.11572266 C-7.660858 1.92289703 -6.83758514 1.73007141 -5.98936462 1.53140259 C-0.2563889 0 -0.2563889 0 0 0 Z " fill="#2EC4B6" transform="translate(306,149)"/>
    <path d="M0 0 C0.96486328 0.32685791 1.92972656 0.65371582 2.92382812 0.99047852 C21.83627866 7.38801512 40.73220452 13.74016949 60 19 C60.68690918 19.18965332 61.37381836 19.37930664 62.08154297 19.57470703 C76.20364312 23.43208251 90.65799875 26.09786755 105 29 C104 31 104 31 101.59809875 31.80755615 C100.52972275 32.06925598 99.46134674 32.33095581 98.3605957 32.60058594 C97.15035233 32.90140076 95.94010895 33.20221558 94.69319153 33.512146 C93.35407419 33.83630258 92.01493686 34.16037658 90.67578125 34.484375 C89.29482241 34.8250728 87.91406256 35.16657812 86.53349304 35.5088501 C82.87261613 36.41451908 79.20949527 37.31074674 75.54571533 38.20458984 C69.77150352 39.61480485 64.0004824 41.03805519 58.22968864 42.462183 C56.81828335 42.81042623 55.40679053 43.15831497 53.99521065 43.50584984 C43.46092755 46.10124738 32.9758785 48.84439431 22.52636719 51.76391602 C16.67406548 53.38810125 10.76912103 54.77493483 4.84765625 56.12109375 C2.3297018 56.69626101 -0.18369553 57.29185297 -2.69140625 57.91015625 C-14.87658001 60.89060262 -14.87658001 60.89060262 -21.296875 59.50390625 C-35.28633691 56.89604413 -51.44411547 59.9295976 -63.578125 67.3203125 C-72.19573215 73.29704004 -77.16796232 79.6777408 -82 89 C-83.34359388 85.98662182 -82.90131581 84.67651536 -81.91796875 81.453125 C-81.35799698 80.04526348 -80.77993895 78.64451014 -80.1875 77.25 C-79.87345215 76.50282715 -79.5594043 75.7556543 -79.23583984 74.98583984 C-64.99302305 42.34748135 -35.81376213 15.45260026 -3 2 C-2.01 2 -1.02 2 0 2 C0 1.34 0 0.68 0 0 Z " fill="#4CAF76" transform="translate(227,100)"/>
    <path d="M0 0 C2.97816718 1.42432416 4.97931682 2.77903265 7.25 5.1875 C9.66042029 7.67452263 12.11175214 10.00640807 14.75 12.25 C15.07742188 12.54519531 15.07742188 12.54519531 16.734375 14.0390625 C19 16 19 16 21.953125 18.1484375 C26.86973477 22.14475877 30.09097181 25.20504534 30.8046875 31.7109375 C31.02552467 37.18141898 30.59564374 42.56487315 30 48 C29.91347168 48.84256348 29.82694336 49.68512695 29.73779297 50.55322266 C27.40263061 71.65323173 20.71215361 94.18516032 6 110 C5.69900391 110.34611328 5.69900391 110.34611328 4.17578125 112.09765625 C-7.34505686 124.63290778 -24.24342972 131.48739049 -41 133 C-41.69174316 133.06654785 -42.38348633 133.1330957 -43.09619141 133.20166016 C-51.29690698 133.89933034 -58.25665552 134.37004993 -65.25 129.4375 C-69.26274789 125.96267055 -72.80291919 122.23397188 -76 118 C-76 117.67 -76 117.34 -76 117 C-75.35675781 116.97083496 -74.71351563 116.94166992 -74.05078125 116.91162109 C-55.03332331 115.95193126 -38.66558689 114.04876311 -24.859375 99.7890625 C-13.84575317 87.18458419 -11.65938091 71.86049337 -11.97265625 55.72265625 C-11.98645797 53.16212265 -11.99743936 50.60157258 -12.00585938 48.04101562 C-12.02624209 44.04624865 -12.05743372 40.05455195 -12.1472168 36.06079102 C-12.62998689 11.32681904 -12.62998689 11.32681904 -6.99082947 5.08580017 C-4.80750906 3.1198384 -2.53444053 1.4812751 0 0 Z " fill="#4CAF76" transform="translate(264,238)"/>
    <path d="M0 0 C2.83108038 2.49304093 4.30395036 5.24847647 6.0625 8.5625 C15.07957903 24.21478812 30.83412446 34.16494575 48.0625 38.8125 C71.68267204 43.6590919 95.92316283 37.55309583 116.02001953 24.70898438 C119.50103981 22.31700357 122.76339977 19.71474702 126 17 C127.32711005 15.99175564 128.65816238 14.98855935 130 14 C128.67121227 16.91639395 127.19918161 19.09402128 125.015625 21.43359375 C124.41758057 22.07586914 123.81953613 22.71814453 123.20336914 23.37988281 C122.55875732 24.05889648 121.91414551 24.73791016 121.25 25.4375 C120.5789624 26.14616211 119.9079248 26.85482422 119.21655273 27.58496094 C108.01356793 39.31002403 96.22931308 49.61645582 83 59 C82.4013916 59.42877441 81.8027832 59.85754883 81.18603516 60.29931641 C70.04049814 68.22331401 58.0921067 74.64969364 46 81 C45.19159668 81.42684082 44.38319336 81.85368164 43.55029297 82.29345703 C41.373005 83.43723683 39.18901437 84.56635456 37 85.6875 C36.37230713 86.01443848 35.74461426 86.34137695 35.09790039 86.67822266 C31.4147528 88.52659564 28.14451695 89.88707038 24 90 C21.5078125 88.62890625 21.5078125 88.62890625 19.125 86.5625 C18.69509766 86.19060547 18.69509766 86.19060547 16.51953125 84.30859375 C15.68808594 83.54675781 14.85664063 82.78492188 14 82 C13.28199219 81.35160156 12.56398437 80.70320313 11.82421875 80.03515625 C-1.11917258 67.74521769 -8.6955173 52.74279886 -9.38232422 34.97900391 C-9.65367821 22.1725364 -7.59350362 10.61143455 0 0 Z " fill="#C8CDD2" transform="translate(170,347)"/>
    <path d="M0 0 C-0.61101562 0.27070312 -1.22203125 0.54140625 -1.8515625 0.8203125 C-28.72158323 13.46057577 -54.63773576 32.72588196 -78 51 C-78.886875 51.68707031 -79.77375 52.37414062 -80.6875 53.08203125 C-83.15336748 55.02232121 -85.580004 57.00284261 -88 59 C-88.48017578 59.38736328 -88.48017578 59.38736328 -90.91015625 61.34765625 C-98.97569207 67.97181787 -106.42056658 75.20639297 -113.8125 82.5625 C-114.30027924 83.04510284 -114.78805847 83.52770569 -115.2906189 84.02493286 C-124.19026763 92.85005114 -132.25059381 102.18026213 -139.375 112.5 C-141.72792168 115.89292782 -144.01624814 119.12620393 -147 122 C-147.05035022 115.70932107 -147.08615648 109.41876555 -147.10986328 103.12792969 C-147.11977124 100.99867708 -147.13330137 98.86943749 -147.15087891 96.74023438 C-147.3042217 77.65356618 -146.33800106 58.82064429 -143 40 C-137.60699798 38.58449709 -132.21131808 37.43783768 -126.7331543 36.40380859 C-85.74368141 28.60579561 -44.47781558 15.43738566 -5.7734375 -0.13671875 C-3 -1 -3 -1 0 0 Z " fill="#233370" transform="translate(194,91)"/>
  </g>
  <g id="brand-name" fill="#233370">
    <path d="M791.60009765625 -20Q591.47998046875 -20 430.579833984375 69.0799560546875Q269.6796875 158.159912109375 176.07958984375 328.89990234375Q82.4794921875 499.639892578125 82.4794921875 744Q82.4794921875 990.1201171875 176.07958984375 1161.2401123046875Q269.6796875 1332.360107421875 430.579833984375 1421.1800537109375Q591.47998046875 1510 791.60009765625 1510Q991.72021484375 1510 1152.120361328125 1421.1800537109375Q1312.5205078125 1332.360107421875 1406.380615234375 1161.2401123046875Q1500.24072265625 990.1201171875 1500.24072265625 744Q1500.24072265625 498.8798828125 1406.380615234375 328.139892578125Q1312.5205078125 157.39990234375 1152.120361328125 68.699951171875Q991.72021484375 -20 791.60009765625 -20ZM791.60009765625 289.76171875Q900.27978515625 289.76171875 978.139404296875 342.0615234375Q1055.9990234375 394.361328125 1097.8387451171875 495.8409423828125Q1139.678466796875 597.320556640625 1139.678466796875 744Q1139.678466796875 891.91943359375 1097.8387451171875 993.779052734375Q1055.9990234375 1095.638671875 978.139404296875 1147.9384765625Q900.27978515625 1200.23828125 791.60009765625 1200.23828125Q683.4404296875 1200.23828125 605.4608154296875 1147.8184814453125Q527.481201171875 1095.398681640625 485.261474609375 993.5390625Q443.041748046875 891.679443359375 443.041748046875 744Q443.041748046875 597.320556640625 485.261474609375 495.9609375Q527.481201171875 394.601318359375 605.4608154296875 342.1815185546875Q683.4404296875 289.76171875 791.60009765625 289.76171875Z" transform="translate(238.385, 142.000) scale(0.0430, -0.0430)"/>
    <path d="M1416.48095703125 1490V0H1063.8388671875V1201.91845703125H468.80126953125V0H116.1591796875V1490Z" transform="translate(307.904, 142.000) scale(0.0430, -0.0430)"/>
    <path d="M791.60009765625 -20Q591.47998046875 -20 430.579833984375 69.0799560546875Q269.6796875 158.159912109375 176.07958984375 328.89990234375Q82.4794921875 499.639892578125 82.4794921875 744Q82.4794921875 990.1201171875 176.07958984375 1161.2401123046875Q269.6796875 1332.360107421875 430.579833984375 1421.1800537109375Q591.47998046875 1510 791.60009765625 1510Q991.72021484375 1510 1152.120361328125 1421.1800537109375Q1312.5205078125 1332.360107421875 1406.380615234375 1161.2401123046875Q1500.24072265625 990.1201171875 1500.24072265625 744Q1500.24072265625 498.8798828125 1406.380615234375 328.139892578125Q1312.5205078125 157.39990234375 1152.120361328125 68.699951171875Q991.72021484375 -20 791.60009765625 -20ZM791.60009765625 289.76171875Q900.27978515625 289.76171875 978.139404296875 342.0615234375Q1055.9990234375 394.361328125 1097.8387451171875 495.8409423828125Q1139.678466796875 597.320556640625 1139.678466796875 744Q1139.678466796875 891.91943359375 1097.8387451171875 993.779052734375Q1055.9990234375 1095.638671875 978.139404296875 1147.9384765625Q900.27978515625 1200.23828125 791.60009765625 1200.23828125Q683.4404296875 1200.23828125 605.4608154296875 1147.8184814453125Q527.481201171875 1095.398681640625 485.261474609375 993.5390625Q443.041748046875 891.679443359375 443.041748046875 744Q443.041748046875 597.320556640625 485.261474609375 495.9609375Q527.481201171875 394.601318359375 605.4608154296875 342.1815185546875Q683.4404296875 289.76171875 791.60009765625 289.76171875Z" transform="translate(375.275, 142.000) scale(0.0430, -0.0430)"/>
    <path d="M116.1591796875 0V1490H726.48046875Q894.400390625 1490 1016.0205078125 1424.97998046875Q1137.640625 1359.9599609375 1203.540771484375 1243.83984375Q1269.44091796875 1127.7197265625 1269.44091796875 974.95947265625Q1269.44091796875 821.439208984375 1202.4007568359375 706.9791259765625Q1135.360595703125 592.51904296875 1011.200439453125 528.8990478515625Q887.040283203125 465.279052734375 716.080322265625 465.279052734375H337.60009765625V744.00048828125H651.599609375Q734.63916015625 744.00048828125 790.678955078125 773.100341796875Q846.71875 802.2001953125 875.0386962890625 854.0799560546875Q903.358642578125 905.959716796875 903.358642578125 974.95947265625Q903.358642578125 1045.479248046875 875.0386962890625 1096.739013671875Q846.71875 1147.998779296875 790.5589599609375 1175.838623046875Q734.399169921875 1203.678466796875 651.11962890625 1203.678466796875H468.80126953125V0Z" transform="translate(444.795, 142.000) scale(0.0430, -0.0430)"/>
    <path d="M47.43994140625 0 544.359375 1490H1016.6826171875L1528.962158203125 0H1132.879638671875L925.56103515625 651.43701171875Q876.040771484375 813.998046875 829.5606689453125 997.298828125Q783.08056640625 1180.599609375 736.440673828125 1378.19970703125H815.001220703125Q770.121337890625 1180.11962890625 727.9613037109375 996.3388671875Q685.80126953125 812.55810546875 638.52099609375 651.43701171875L439.4423828125 0ZM384.80078125 317.19873046875V586.56005859375H1191.601318359375V317.19873046875Z" transform="translate(503.658, 142.000) scale(0.0430, -0.0430)"/>
  </g>
  <g id="brand-tagline" fill="#667085">
    <path d="M164.880615234375 0V1490H393.3990478515625V860.0394287109375H1131.120849609375V1490H1359.6392822265625V0H1131.120849609375V663.6005859375H393.3990478515625V0Z" transform="translate(241.385, 168.000) scale(0.0064, -0.0064)"/>
    <path d="M50.9200439453125 0 581.48046875 1490H861.238037109375L1400.7783813476562 0H1154.3402709960938L864.0792236328125 828.9222412109375Q830.2194213867188 930.00146484375 789.8294982910156 1066.90087890625Q749.4395751953125 1203.80029296875 696.4194946289062 1395.6002197265625H742.4990844726562Q690.6589965820312 1202.1602783203125 650.5290222167969 1063.620849609375Q610.3990478515625 925.0814208984375 579.3592529296875 828.9222412109375L297.918212890625 0ZM338.3994140625 392.6009521484375V583.0799560546875H1113.2990112304688V392.6009521484375Z" transform="translate(253.814, 168.000) scale(0.0064, -0.0064)"/>
    <path d="M1317.5392456054688 0H164.880615234375V1490H393.3990478515625V195.61883544921875H1089.0208129882812V1490H1317.5392456054688ZM1246.4607543945312 -320.0V0.0H1167.680908203125V190.1190185546875H1468.6790771484375L1463.5392456054688 -320.0Z" transform="translate(265.772, 168.000) scale(0.0064, -0.0064)"/>
    <path d="M1384.0591430664062 0H1152.560791015625V794.9222412109375Q1152.560791015625 838.7020874023438 1155.4207763671875 912.1219482421875Q1158.28076171875 985.5418090820312 1163.3207397460938 1081.3417358398438Q1168.3607177734375 1177.1416625976562 1173.0806884765625 1287.0617065429688H1209.3406372070312Q1142.1204833984375 1162.5016479492188 1095.4704284667969 1076.1916809082031Q1048.8203735351562 989.8817138671875 1011.0104064941406 924.141845703125Q973.200439453125 858.4019775390625 931.7805786132812 793.2822265625L429.3990478515625 0H164.880615234375V1490H395.5589599609375V642.2373046875Q395.5589599609375 591.7374877929688 393.65899658203125 518.9877624511719Q391.759033203125 446.238037109375 387.1290588378906 362.6982421875Q382.49908447265625 279.158447265625 374.21905517578125 194.05841064453125H345.77911376953125Q384.77911376953125 284.078125 423.5091247558594 360.4079895019531Q462.2391357421875 436.73785400390625 497.7290954589844 497.97772216796875Q533.2190551757812 559.2175903320312 560.35888671875 603.2373046875L1121.1807250976562 1490H1384.0591430664062Z" transform="translate(278.092, 168.000) scale(0.0064, -0.0064)"/>
    <path d="M785.7999267578125 -20Q592.6400146484375 -20 440.44012451171875 71.69003295898438Q288.240234375 163.38006591796875 200.4403076171875 334.7000732421875Q112.640380859375 506.02008056640625 112.640380859375 744Q112.640380859375 983.159912109375 200.4403076171875 1154.5699157714844Q288.240234375 1325.9799194335938 440.44012451171875 1417.9899597167969Q592.6400146484375 1510 785.7999267578125 1510Q978.9598388671875 1510 1130.6597290039062 1417.9899597167969Q1282.359619140625 1325.9799194335938 1369.8395385742188 1154.5699157714844Q1457.3194580078125 983.159912109375 1457.3194580078125 744Q1457.3194580078125 505.840087890625 1369.8395385742188 334.52008056640625Q1282.359619140625 163.2000732421875 1130.6597290039062 71.60003662109375Q978.9598388671875 -20 785.7999267578125 -20ZM785.7999267578125 187.6787109375Q913.0401611328125 187.6787109375 1013.5204467773438 251.578857421875Q1114.000732421875 315.47900390625 1172.3709411621094 439.8692932128906Q1230.7411499023438 564.2595825195312 1230.7411499023438 744Q1230.7411499023438 925.5604248046875 1172.3709411621094 1050.0407104492188Q1114.000732421875 1174.52099609375 1013.5204467773438 1238.421142578125Q913.0401611328125 1302.3212890625 785.7999267578125 1302.3212890625Q657.919677734375 1302.3212890625 557.0293884277344 1238.0111389160156Q456.13909912109375 1173.7009887695312 397.67889404296875 1049.220703125Q339.21868896484375 924.7404174804688 339.21868896484375 744Q339.21868896484375 564.2595825195312 397.67889404296875 440.279296875Q456.13909912109375 316.29901123046875 557.0293884277344 251.98886108398438Q657.919677734375 187.6787109375 785.7999267578125 187.6787109375Z" transform="translate(290.676, 168.000) scale(0.0064, -0.0064)"/>
    <path d="M164.880615234375 0V1490H393.3990478515625V860.0394287109375H1131.120849609375V1490H1359.6392822265625V0H1131.120849609375V663.6005859375H393.3990478515625V0Z" transform="translate(303.395, 168.000) scale(0.0064, -0.0064)"/>
    <path d="M50.9200439453125 0 581.48046875 1490H861.238037109375L1400.7783813476562 0H1154.3402709960938L864.0792236328125 828.9222412109375Q830.2194213867188 930.00146484375 789.8294982910156 1066.90087890625Q749.4395751953125 1203.80029296875 696.4194946289062 1395.6002197265625H742.4990844726562Q690.6589965820312 1202.1602783203125 650.5290222167969 1063.620849609375Q610.3990478515625 925.0814208984375 579.3592529296875 828.9222412109375L297.918212890625 0ZM338.3994140625 392.6009521484375V583.0799560546875H1113.2990112304688V392.6009521484375Z" transform="translate(315.824, 168.000) scale(0.0064, -0.0064)"/>
    <path d="M90.4403076171875 0V195.61883544921875H130.4403076171875Q201.8802490234375 195.61883544921875 243.93026733398438 227.57867431640625Q285.98028564453125 259.53851318359375 309.1703186035156 344.3382568359375Q332.3603515625 429.13800048828125 344.90032958984375 587.3377075195312L419.22052001953125 1490H1368.1993408203125V0H1139.680908203125V1294.3811645507812H626.7791137695312L564.9189453125 545.0587768554688Q552.47900390625 397.65936279296875 524.6591796875 293.5896301269531Q496.83935546875 189.5198974609375 448.1695861816406 124.719970703125Q399.49981689453125 59.9200439453125 324.5100402832031 29.96002197265625Q249.520263671875 0 142.74041748046875 0Z" transform="translate(327.782, 168.000) scale(0.0064, -0.0064)"/>
    <path d="M323.49981689453125 923.59912109375H718.240234375Q879.2599487304688 923.59912109375 996.7097473144531 868.2491760253906Q1114.1595458984375 812.8992309570312 1178.3594360351562 710.8793334960938Q1242.559326171875 608.8594360351562 1242.559326171875 469.25958251953125Q1242.559326171875 325.19970703125 1178.7694396972656 219.85980224609375Q1114.9795532226562 114.5198974609375 997.5297546386719 57.25994873046875Q880.0799560546875 0 718.240234375 0H164.880615234375V1490H393.3990478515625V192.53887939453125H718.240234375Q856.5805053710938 192.53887939453125 936.3106994628906 267.5890808105469Q1016.0408935546875 342.6392822265625 1016.0408935546875 471.61956787109375Q1016.0408935546875 552.479736328125 979.7908020019531 610.1498718261719Q943.5407104492188 667.8200073242188 877.1405639648438 699.340087890625Q810.7404174804688 730.8601684570312 718.240234375 730.8601684570312H323.49981689453125Z" transform="translate(340.263, 168.000) scale(0.0064, -0.0064)"/>
    <path d="M164.880615234375 0V1490H393.3990478515625V860.0394287109375H1131.120849609375V1490H1359.6392822265625V0H1131.120849609375V663.6005859375H393.3990478515625V0Z" transform="translate(351.493, 168.000) scale(0.0064, -0.0064)"/>
    <path d="M50.9200439453125 0 581.48046875 1490H861.238037109375L1400.7783813476562 0H1154.3402709960938L864.0792236328125 828.9222412109375Q830.2194213867188 930.00146484375 789.8294982910156 1066.90087890625Q749.4395751953125 1203.80029296875 696.4194946289062 1395.6002197265625H742.4990844726562Q690.6589965820312 1202.1602783203125 650.5290222167969 1063.620849609375Q610.3990478515625 925.0814208984375 579.3592529296875 828.9222412109375L297.918212890625 0ZM338.3994140625 392.6009521484375V583.0799560546875H1113.2990112304688V392.6009521484375Z" transform="translate(363.923, 168.000) scale(0.0064, -0.0064)"/>
    <path d="M1162.1190185546875 0H933.6005859375V1294.7411499023438H653.83935546875Q544.2990112304688 1294.7411499023438 475.578857421875 1261.3910217285156Q406.85870361328125 1228.0408935546875 374.93865966796875 1167.1307067871094Q343.01861572265625 1106.2205200195312 343.01861572265625 1021.7203369140625Q343.01861572265625 938.8601684570312 374.93865966796875 879.7699890136719Q406.85870361328125 820.6798095703125 475.1688537597656 789.1496887207031Q543.47900390625 757.6195678710938 652.1993408203125 757.6195678710938H1031.280029296875V562.5206298828125H630.0598754882812Q457.599853515625 562.5206298828125 342.3099670410156 619.7506408691406Q227.02008056640625 676.9806518554688 169.55020141601562 780.4205932617188Q112.080322265625 883.8605346679688 112.080322265625 1021.7203369140625Q112.080322265625 1159.2201538085938 169.28021240234375 1264.9300842285156Q226.4801025390625 1370.6400146484375 341.1400146484375 1430.3200073242188Q455.7999267578125 1490 628.3599853515625 1490H1162.1190185546875ZM315.11865234375 0H55.520263671875L422.960205078125 673.3399047851562H675.838623046875Z" transform="translate(375.881, 168.000) scale(0.0064, -0.0064)"/>
    <path d="M1317.5392456054688 0H164.880615234375V1490H393.3990478515625V195.61883544921875H1089.0208129882812V1490H1317.5392456054688ZM1246.4607543945312 -320.0V0.0H1167.680908203125V190.1190185546875H1468.6790771484375L1463.5392456054688 -320.0Z" transform="translate(393.153, 168.000) scale(0.0064, -0.0064)"/>
    <path d="M1384.0591430664062 0H1152.560791015625V794.9222412109375Q1152.560791015625 838.7020874023438 1155.4207763671875 912.1219482421875Q1158.28076171875 985.5418090820312 1163.3207397460938 1081.3417358398438Q1168.3607177734375 1177.1416625976562 1173.0806884765625 1287.0617065429688H1209.3406372070312Q1142.1204833984375 1162.5016479492188 1095.4704284667969 1076.1916809082031Q1048.8203735351562 989.8817138671875 1011.0104064941406 924.141845703125Q973.200439453125 858.4019775390625 931.7805786132812 793.2822265625L429.3990478515625 0H164.880615234375V1490H395.5589599609375V642.2373046875Q395.5589599609375 591.7374877929688 393.65899658203125 518.9877624511719Q391.759033203125 446.238037109375 387.1290588378906 362.6982421875Q382.49908447265625 279.158447265625 374.21905517578125 194.05841064453125H345.77911376953125Q384.77911376953125 284.078125 423.5091247558594 360.4079895019531Q462.2391357421875 436.73785400390625 497.7290954589844 497.97772216796875Q533.2190551757812 559.2175903320312 560.35888671875 603.2373046875L1121.1807250976562 1490H1384.0591430664062Z" transform="translate(405.473, 168.000) scale(0.0064, -0.0064)"/>
    <path d="M785.5198974609375 104.840087890625Q577.1201171875 104.840087890625 426.1002197265625 183.02008056640625Q275.080322265625 261.2000732421875 193.8603515625 404.74005126953125Q112.640380859375 548.280029296875 112.640380859375 745Q112.640380859375 941.719970703125 193.8603515625 1085.2599487304688Q275.080322265625 1228.7999267578125 426.1002197265625 1307.0699157714844Q577.1201171875 1385.3399047851562 785.5198974609375 1385.3399047851562H915.5198974609375Q1124.7396850585938 1385.3399047851562 1275.3495788574219 1307.0699157714844Q1425.95947265625 1228.7999267578125 1507.179443359375 1085.2599487304688Q1588.3994140625 941.719970703125 1588.3994140625 745Q1588.3994140625 548.280029296875 1507.179443359375 404.74005126953125Q1425.95947265625 261.2000732421875 1275.3495788574219 183.02008056640625Q1124.7396850585938 104.840087890625 915.5198974609375 104.840087890625ZM793.5198974609375 305.0390625H907.5198974609375Q1058.2201538085938 305.0390625 1160.0104064941406 355.2091979980469Q1261.8006591796875 405.37933349609375 1314.0708312988281 503.6595458984375Q1366.3410034179688 601.9397583007812 1366.3410034179688 745Q1366.3410034179688 888.240234375 1314.0708312988281 986.5204467773438Q1261.8006591796875 1084.8006591796875 1160.0104064941406 1134.9707946777344Q1058.2201538085938 1185.1409301757812 907.5198974609375 1185.1409301757812H793.5198974609375Q643.8196411132812 1185.1409301757812 541.5293884277344 1134.9707946777344Q439.2391357421875 1084.8006591796875 386.9689636230469 986.5204467773438Q334.69879150390625 888.240234375 334.69879150390625 745Q334.69879150390625 601.9397583007812 386.9689636230469 503.6595458984375Q439.2391357421875 405.37933349609375 541.5293884277344 355.2091979980469Q643.8196411132812 305.0390625 793.5198974609375 305.0390625ZM736.6206665039062 -88V1578H964.4191284179688V-88Z" transform="translate(418.056, 168.000) scale(0.0064, -0.0064)"/>
    <path d="M164.880615234375 0V1490H698.6396484375Q871.19970703125 1490 985.859619140625 1426.1400146484375Q1100.51953125 1362.280029296875 1157.7194213867188 1253.1201171875Q1214.9193115234375 1143.960205078125 1214.9193115234375 1006.2803955078125Q1214.9193115234375 868.4205932617188 1157.4494323730469 758.8906555175781Q1099.9795532226562 649.3607177734375 985.0996704101562 585.4507141113281Q870.2197875976562 521.5407104492188 696.9397583007812 521.5407104492188H331.7999267578125V714.9996337890625H674.80029296875Q784.5206298828125 714.9996337890625 852.7407836914062 752.7997436523438Q920.9609375 790.599853515625 952.4709777832031 856.6900329589844Q983.9810180664062 922.7802124023438 983.9810180664062 1006.2803955078125Q983.9810180664062 1090.1405639648438 952.4709777832031 1155.3207397460938Q920.9609375 1220.5009155273438 852.3307800292969 1257.6210327148438Q783.7006225585938 1294.7411499023438 673.1602783203125 1294.7411499023438H393.3990478515625V0Z" transform="translate(431.620, 168.000) scale(0.0064, -0.0064)"/>
    <path d="M785.7999267578125 -20Q592.6400146484375 -20 440.44012451171875 71.69003295898438Q288.240234375 163.38006591796875 200.4403076171875 334.7000732421875Q112.640380859375 506.02008056640625 112.640380859375 744Q112.640380859375 983.159912109375 200.4403076171875 1154.5699157714844Q288.240234375 1325.9799194335938 440.44012451171875 1417.9899597167969Q592.6400146484375 1510 785.7999267578125 1510Q978.9598388671875 1510 1130.6597290039062 1417.9899597167969Q1282.359619140625 1325.9799194335938 1369.8395385742188 1154.5699157714844Q1457.3194580078125 983.159912109375 1457.3194580078125 744Q1457.3194580078125 505.840087890625 1369.8395385742188 334.52008056640625Q1282.359619140625 163.2000732421875 1130.6597290039062 71.60003662109375Q978.9598388671875 -20 785.7999267578125 -20ZM785.7999267578125 187.6787109375Q913.0401611328125 187.6787109375 1013.5204467773438 251.578857421875Q1114.000732421875 315.47900390625 1172.3709411621094 439.8692932128906Q1230.7411499023438 564.2595825195312 1230.7411499023438 744Q1230.7411499023438 925.5604248046875 1172.3709411621094 1050.0407104492188Q1114.000732421875 1174.52099609375 1013.5204467773438 1238.421142578125Q913.0401611328125 1302.3212890625 785.7999267578125 1302.3212890625Q657.919677734375 1302.3212890625 557.0293884277344 1238.0111389160156Q456.13909912109375 1173.7009887695312 397.67889404296875 1049.220703125Q339.21868896484375 924.7404174804688 339.21868896484375 744Q339.21868896484375 564.2595825195312 397.67889404296875 440.279296875Q456.13909912109375 316.29901123046875 557.0293884277344 251.98886108398438Q657.919677734375 187.6787109375 785.7999267578125 187.6787109375Z" transform="translate(442.689, 168.000) scale(0.0064, -0.0064)"/>
    <path d="M164.880615234375 0V1490H714.1197509765625Q872.6396484375 1490 976.7495422363281 1437.8499450683594Q1080.8594360351562 1385.6998901367188 1132.0693664550781 1297.2798461914062Q1183.279296875 1208.8598022460938 1183.279296875 1099.1398315429688Q1183.279296875 1005.6597290039062 1148.9193115234375 942.1697692871094Q1114.559326171875 878.6798095703125 1057.4393920898438 840.1498718261719Q1000.3194580078125 801.6199340820312 931.359619140625 783.7999267578125V769.43994140625Q1006.0394287109375 765.6199340820312 1077.1593627929688 721.5299377441406Q1148.279296875 677.43994140625 1194.779296875 596.8899230957031Q1241.279296875 516.3399047851562 1241.279296875 401.49981689453125Q1241.279296875 287.69989013671875 1187.7093811035156 196.70993041992188Q1134.1394653320312 105.719970703125 1022.8795166015625 52.8599853515625Q911.6195678710938 0 738.1394653320312 0ZM393.3990478515625 195.7188720703125H714.6002197265625Q875.4607543945312 195.7188720703125 945.0009155273438 257.6790771484375Q1014.5410766601562 319.6392822265625 1014.5410766601562 412.49945068359375Q1014.5410766601562 483.53961181640625 979.0609741210938 541.7698059082031Q943.5808715820312 600 878.5806884765625 634.5801391601562Q813.5805053710938 669.1602783203125 723.8802490234375 669.1602783203125H393.3990478515625ZM393.3990478515625 845.359619140625H692.240234375Q767.3804321289062 845.359619140625 827.9706115722656 874.1597290039062Q888.560791015625 902.9598388671875 923.8609008789062 955.780029296875Q959.1610107421875 1008.6002197265625 959.1610107421875 1080.0204467773438Q959.1610107421875 1171.8006591796875 894.90087890625 1233.40087890625Q830.6407470703125 1295.0010986328125 698.240234375 1295.0010986328125H393.3990478515625Z" transform="translate(455.408, 168.000) scale(0.0064, -0.0064)"/>
    <path d="M50.9200439453125 0 581.48046875 1490H861.238037109375L1400.7783813476562 0H1154.3402709960938L864.0792236328125 828.9222412109375Q830.2194213867188 930.00146484375 789.8294982910156 1066.90087890625Q749.4395751953125 1203.80029296875 696.4194946289062 1395.6002197265625H742.4990844726562Q690.6589965820312 1202.1602783203125 650.5290222167969 1063.620849609375Q610.3990478515625 925.0814208984375 579.3592529296875 828.9222412109375L297.918212890625 0ZM338.3994140625 392.6009521484375V583.0799560546875H1113.2990112304688V392.6009521484375Z" transform="translate(466.677, 168.000) scale(0.0064, -0.0064)"/>
    <path d="M1162.1190185546875 0H933.6005859375V1294.7411499023438H653.83935546875Q544.2990112304688 1294.7411499023438 475.578857421875 1261.3910217285156Q406.85870361328125 1228.0408935546875 374.93865966796875 1167.1307067871094Q343.01861572265625 1106.2205200195312 343.01861572265625 1021.7203369140625Q343.01861572265625 938.8601684570312 374.93865966796875 879.7699890136719Q406.85870361328125 820.6798095703125 475.1688537597656 789.1496887207031Q543.47900390625 757.6195678710938 652.1993408203125 757.6195678710938H1031.280029296875V562.5206298828125H630.0598754882812Q457.599853515625 562.5206298828125 342.3099670410156 619.7506408691406Q227.02008056640625 676.9806518554688 169.55020141601562 780.4205932617188Q112.080322265625 883.8605346679688 112.080322265625 1021.7203369140625Q112.080322265625 1159.2201538085938 169.28021240234375 1264.9300842285156Q226.4801025390625 1370.6400146484375 341.1400146484375 1430.3200073242188Q455.7999267578125 1490 628.3599853515625 1490H1162.1190185546875ZM315.11865234375 0H55.520263671875L422.960205078125 673.3399047851562H675.838623046875Z" transform="translate(478.636, 168.000) scale(0.0064, -0.0064)"/>
    <path d="M719.2197875976562 -20Q595.400146484375 -20 490.3503112792969 17.149871826171875Q385.30047607421875 54.29974365234375 304.4905090332031 121.48959350585938Q223.6805419921875 188.679443359375 172.53048706054688 280.7093811035156Q121.38043212890625 372.73931884765625 103.54034423828125 482.49945068359375H333.13873291015625Q347.8787841796875 409.9193115234375 383.138916015625 354.6591796875Q418.3990478515625 299.3990478515625 470.0292053222656 261.8289489746094Q521.6593627929688 224.25885009765625 585.5595092773438 205.60879516601562Q649.4596557617188 186.958740234375 720.2997436523438 186.958740234375Q848 186.958740234375 948.0303039550781 250.22891235351562Q1048.0606079101562 313.49908447265625 1105.5708312988281 437.4793701171875Q1163.0810546875 561.4596557617188 1163.0810546875 744Q1163.0810546875 926.2803955078125 1105.6608276367188 1050.8506774902344Q1048.2406005859375 1175.4209594726562 948.2102966308594 1239.2311096191406Q848.1799926757812 1303.041259765625 719.9397583007812 1303.041259765625Q648.919677734375 1303.041259765625 585.1095275878906 1284.3912048339844Q521.2993774414062 1265.7411499023438 469.8492126464844 1228.1710510253906Q418.3990478515625 1190.6009521484375 383.2289123535156 1135.7508239746094Q348.05877685546875 1080.9006958007812 333.49871826171875 1007.5005493164062H103.90032958984375Q122.82037353515625 1126.1004028320312 176.59036254882812 1219.2102966308594Q230.3603515625 1312.3201904296875 311.98028564453125 1377.3501281738281Q393.6002197265625 1442.3800659179688 497.16009521484375 1476.1900329589844Q600.719970703125 1510 719.2197875976562 1510Q912.0197143554688 1510 1063.4496154785156 1417.9899597167969Q1214.8795166015625 1325.9799194335938 1302.2694396972656 1154.5699157714844Q1389.6593627929688 983.159912109375 1389.6593627929688 744Q1389.6593627929688 506.840087890625 1302.5394287109375 335.52008056640625Q1215.4194946289062 164.2000732421875 1064.07958984375 72.10003662109375Q912.7396850585938 -20 719.2197875976562 -20ZM569.8798828125 662.0606079101562V856.239501953125H1229.6611938476562V662.0606079101562Z" transform="translate(495.908, 168.000) scale(0.0064, -0.0064)"/>
    <path d="M164.880615234375 0V1490H393.3990478515625V855.5794067382812H589.9795532226562L1054.92041015625 1490H1328.838623046875L782.2982788085938 766.9200439453125L1353.1986083984375 0H1080.1004028320312L595.0996704101562 662.6805419921875H393.3990478515625V0Z" transform="translate(508.189, 168.000) scale(0.0064, -0.0064)"/>
    <path d="M785.7999267578125 -20Q592.6400146484375 -20 440.44012451171875 71.69003295898438Q288.240234375 163.38006591796875 200.4403076171875 334.7000732421875Q112.640380859375 506.02008056640625 112.640380859375 744Q112.640380859375 983.159912109375 200.4403076171875 1154.5699157714844Q288.240234375 1325.9799194335938 440.44012451171875 1417.9899597167969Q592.6400146484375 1510 785.7999267578125 1510Q978.9598388671875 1510 1130.6597290039062 1417.9899597167969Q1282.359619140625 1325.9799194335938 1369.8395385742188 1154.5699157714844Q1457.3194580078125 983.159912109375 1457.3194580078125 744Q1457.3194580078125 505.840087890625 1369.8395385742188 334.52008056640625Q1282.359619140625 163.2000732421875 1130.6597290039062 71.60003662109375Q978.9598388671875 -20 785.7999267578125 -20ZM785.7999267578125 187.6787109375Q913.0401611328125 187.6787109375 1013.5204467773438 251.578857421875Q1114.000732421875 315.47900390625 1172.3709411621094 439.8692932128906Q1230.7411499023438 564.2595825195312 1230.7411499023438 744Q1230.7411499023438 925.5604248046875 1172.3709411621094 1050.0407104492188Q1114.000732421875 1174.52099609375 1013.5204467773438 1238.421142578125Q913.0401611328125 1302.3212890625 785.7999267578125 1302.3212890625Q657.919677734375 1302.3212890625 557.0293884277344 1238.0111389160156Q456.13909912109375 1173.7009887695312 397.67889404296875 1049.220703125Q339.21868896484375 924.7404174804688 339.21868896484375 744Q339.21868896484375 564.2595825195312 397.67889404296875 440.279296875Q456.13909912109375 316.29901123046875 557.0293884277344 251.98886108398438Q657.919677734375 187.6787109375 785.7999267578125 187.6787109375Z" transform="translate(519.864, 168.000) scale(0.0064, -0.0064)"/>
    <path d="M783.8999633789062 -20Q590.56005859375 -20 438.72015380859375 71.69003295898438Q286.8802490234375 163.38006591796875 199.76031494140625 334.7000732421875Q112.640380859375 506.02008056640625 112.640380859375 744Q112.640380859375 983.159912109375 200.03030395507812 1154.5699157714844Q287.42022705078125 1325.9799194335938 439.3501281738281 1417.9899597167969Q591.280029296875 1510 783.8999633789062 1510Q901.5797729492188 1510 1005.1396484375 1476.1900329589844Q1108.6995239257812 1442.3800659179688 1190.3194580078125 1377.3501281738281Q1271.9393920898438 1312.3201904296875 1325.7093811035156 1219.2102966308594Q1379.4793701171875 1126.1004028320312 1398.3994140625 1007.5005493164062H1168.801025390625Q1154.6009521484375 1079.28076171875 1119.5208129882812 1133.8609008789062Q1084.440673828125 1188.4410400390625 1033.1705017089844 1226.2811279296875Q981.9003295898438 1264.1212158203125 918.9501647949219 1283.2212524414062Q856 1302.3212890625 786.0598754882812 1302.3212890625Q657.9996337890625 1302.3212890625 556.7493591308594 1237.6511535644531Q455.49908447265625 1172.9810180664062 397.35888671875 1048.500732421875Q339.21868896484375 924.0204467773438 339.21868896484375 744Q339.21868896484375 563.7196044921875 397.9488830566406 439.3293151855469Q456.6790771484375 314.93902587890625 557.7493591308594 251.30886840820312Q658.8196411132812 187.6787109375 785.6998901367188 187.6787109375Q855.6400146484375 187.6787109375 918.5001831054688 207.18875122070312Q981.3603515625 226.69879150390625 1032.8105163574219 264.1288757324219Q1084.2606811523438 301.5589599609375 1119.5208129882812 356.5491027832031Q1154.7809448242188 411.53924560546875 1169.1610107421875 482.49945068359375H1398.7593994140625Q1381.9193115234375 371.9193115234375 1329.8592529296875 280.29937744140625Q1277.7991943359375 188.679443359375 1196.9892272949219 121.07958984375Q1116.1792602539062 53.479736328125 1011.5394287109375 16.7398681640625Q906.8995971679688 -20 783.8999633789062 -20Z" transform="translate(532.583, 168.000) scale(0.0064, -0.0064)"/>
    <path d="M1384.0591430664062 0H1152.560791015625V794.9222412109375Q1152.560791015625 838.7020874023438 1155.4207763671875 912.1219482421875Q1158.28076171875 985.5418090820312 1163.3207397460938 1081.3417358398438Q1168.3607177734375 1177.1416625976562 1173.0806884765625 1287.0617065429688H1209.3406372070312Q1142.1204833984375 1162.5016479492188 1095.4704284667969 1076.1916809082031Q1048.8203735351562 989.8817138671875 1011.0104064941406 924.141845703125Q973.200439453125 858.4019775390625 931.7805786132812 793.2822265625L429.3990478515625 0H164.880615234375V1490H395.5589599609375V642.2373046875Q395.5589599609375 591.7374877929688 393.65899658203125 518.9877624511719Q391.759033203125 446.238037109375 387.1290588378906 362.6982421875Q382.49908447265625 279.158447265625 374.21905517578125 194.05841064453125H345.77911376953125Q384.77911376953125 284.078125 423.5091247558594 360.4079895019531Q462.2391357421875 436.73785400390625 497.7290954589844 497.97772216796875Q533.2190551757812 559.2175903320312 560.35888671875 603.2373046875L1121.1807250976562 1490H1384.0591430664062Z" transform="translate(544.864, 168.000) scale(0.0064, -0.0064)"/>
    <path d="M783.8999633789062 -20Q590.56005859375 -20 438.72015380859375 71.69003295898438Q286.8802490234375 163.38006591796875 199.76031494140625 334.7000732421875Q112.640380859375 506.02008056640625 112.640380859375 744Q112.640380859375 983.159912109375 200.03030395507812 1154.5699157714844Q287.42022705078125 1325.9799194335938 439.3501281738281 1417.9899597167969Q591.280029296875 1510 783.8999633789062 1510Q901.5797729492188 1510 1005.1396484375 1476.1900329589844Q1108.6995239257812 1442.3800659179688 1190.3194580078125 1377.3501281738281Q1271.9393920898438 1312.3201904296875 1325.7093811035156 1219.2102966308594Q1379.4793701171875 1126.1004028320312 1398.3994140625 1007.5005493164062H1168.801025390625Q1154.6009521484375 1079.28076171875 1119.5208129882812 1133.8609008789062Q1084.440673828125 1188.4410400390625 1033.1705017089844 1226.2811279296875Q981.9003295898438 1264.1212158203125 918.9501647949219 1283.2212524414062Q856 1302.3212890625 786.0598754882812 1302.3212890625Q657.9996337890625 1302.3212890625 556.7493591308594 1237.6511535644531Q455.49908447265625 1172.9810180664062 397.35888671875 1048.500732421875Q339.21868896484375 924.0204467773438 339.21868896484375 744Q339.21868896484375 563.7196044921875 397.9488830566406 439.3293151855469Q456.6790771484375 314.93902587890625 557.7493591308594 251.30886840820312Q658.8196411132812 187.6787109375 785.6998901367188 187.6787109375Q855.6400146484375 187.6787109375 918.5001831054688 207.18875122070312Q981.3603515625 226.69879150390625 1032.8105163574219 264.1288757324219Q1084.2606811523438 301.5589599609375 1119.5208129882812 356.5491027832031Q1154.7809448242188 411.53924560546875 1169.1610107421875 482.49945068359375H1398.7593994140625Q1381.9193115234375 371.9193115234375 1329.8592529296875 280.29937744140625Q1277.7991943359375 188.679443359375 1196.9892272949219 121.07958984375Q1116.1792602539062 53.479736328125 1011.5394287109375 16.7398681640625Q906.8995971679688 -20 783.8999633789062 -20Z" transform="translate(557.448, 168.000) scale(0.0064, -0.0064)"/>
    <path d="M90.4403076171875 1293.5611572265625V1490H1246.6790771484375V1293.5611572265625H783.638916015625V0H555.1204833984375V1293.5611572265625Z" transform="translate(569.728, 168.000) scale(0.0064, -0.0064)"/>
    <path d="M164.880615234375 0V1490H1102.7593994140625V1293.5611572265625H393.3990478515625V849.679443359375H1052.4994506835938V654.6805419921875H393.3990478515625V196.4388427734375H1109.4194946289062V0Z" transform="translate(580.946, 168.000) scale(0.0064, -0.0064)"/>
    <path d="M164.880615234375 0V1490H501.117919921875L826.1796264648438 635.3165283203125Q839.8995971679688 597.4567260742188 857.3895568847656 539.0470886230469Q874.8795166015625 480.637451171875 893.9194946289062 412.6478576660156Q912.95947265625 344.65826416015625 930.1394653320312 278.6986083984375Q947.3194580078125 212.73895263671875 959.7794799804688 159.59912109375H911.8397216796875Q925.1197509765625 210.2789306640625 942.2097473144531 275.4185791015625Q959.2997436523438 340.5582275390625 978.3397216796875 408.95782470703125Q997.3796997070312 477.357421875 1015.1896667480469 536.9970703125Q1032.9996337890625 596.63671875 1046.7196044921875 635.3165283203125L1367.3212890625 1490H1704.55859375V0H1477.7802124023438V801.5020141601562Q1477.7802124023438 848.4019775390625 1478.6401977539062 911.9917907714844Q1479.5001831054688 975.5816040039062 1481.2701721191406 1047.0613403320312Q1483.0401611328125 1118.5410766601562 1484.7201538085938 1191.8408203125Q1486.400146484375 1265.1405639648438 1487.2201538085938 1332.2803955078125H1504.4801025390625Q1484.0200805664062 1258.6005859375 1460.6100769042969 1181.5208129882812Q1437.2000732421875 1104.4410400390625 1414.4300842285156 1032.3612670898438Q1391.6600952148438 960.281494140625 1371.3001098632812 900.5116882324219Q1350.9401245117188 840.7418823242188 1336.5801391601562 801.5020141601562L1032.3789672851562 0H836.6002197265625L527.759033203125 801.5020141601562Q513.3990478515625 839.921875 493.7690734863281 898.461669921875Q474.13909912109375 957.00146484375 451.1891174316406 1028.26123046875Q428.2391357421875 1099.52099609375 404.3291320800781 1177.4207763671875Q380.41912841796875 1255.320556640625 356.49908447265625 1332.2803955078125H376.47900390625Q378.1190185546875 1270.880615234375 379.79901123046875 1199.2208862304688Q381.47900390625 1127.5611572265625 382.8389892578125 1054.8514099121094Q384.198974609375 982.1416625976562 385.4689636230469 916.5018310546875Q386.73895263671875 850.8619995117188 386.73895263671875 801.5020141601562V0Z" transform="translate(591.506, 168.000) scale(0.0064, -0.0064)"/>
    <path d="M50.9200439453125 0 581.48046875 1490H861.238037109375L1400.7783813476562 0H1154.3402709960938L864.0792236328125 828.9222412109375Q830.2194213867188 930.00146484375 789.8294982910156 1066.90087890625Q749.4395751953125 1203.80029296875 696.4194946289062 1395.6002197265625H742.4990844726562Q690.6589965820312 1202.1602783203125 650.5290222167969 1063.620849609375Q610.3990478515625 925.0814208984375 579.3592529296875 828.9222412109375L297.918212890625 0ZM338.3994140625 392.6009521484375V583.0799560546875H1113.2990112304688V392.6009521484375Z" transform="translate(606.152, 168.000) scale(0.0064, -0.0064)"/>
  </g>
</svg>